<svg xmlns="http://www.w3.org/2000/svg" xmlns:xlink="http://www.w3.org/1999/xlink" width="200" zoomAndPan="magnify" viewBox="0 0 150 58.499998" height="78" preserveAspectRatio="xMidYMid meet" version="1.0"><defs><g/><clipPath id="64851395d6"><path d="M 21 31 L 43.617188 31 L 43.617188 44.542969 L 21 44.542969 Z M 21 31 " clip-rule="nonzero"/></clipPath><clipPath id="8edf8aa698"><path d="M 21.652344 31.128906 L 43.617188 31.128906 L 43.617188 44.542969 L 21.652344 44.542969 Z M 21.652344 31.128906 " clip-rule="nonzero"/></clipPath><clipPath id="0c8eb959f2"><path d="M 32.375 32.335938 C 29.550781 30.414062 25.734375 30.875 23.449219 33.417969 C 21.160156 35.960938 21.105469 39.804688 23.320312 42.410156 C 25.5 43.855469 28.117188 44.695312 30.925781 44.695312 C 36.550781 44.695312 41.390625 41.332031 43.542969 36.507812 L 43.625 36.316406 C 43.78125 35.871094 43.71875 35.375 43.445312 34.980469 C 43.132812 34.53125 42.59375 34.289062 42.050781 34.359375 C 41.503906 34.425781 41.042969 34.792969 40.851562 35.308594 C 38.652344 38.621094 34.039062 38.675781 30.605469 37.664062 C 26.144531 36.351562 27.390625 31.015625 32.375 32.335938 " clip-rule="nonzero"/></clipPath><clipPath id="21e525385d"><path d="M 6.4375 13.308594 L 43 13.308594 L 43 43 L 6.4375 43 Z M 6.4375 13.308594 " clip-rule="nonzero"/></clipPath><clipPath id="f6566dabcf"><path d="M 6.445312 13.308594 L 42.683594 13.308594 L 42.683594 42.449219 L 6.445312 42.449219 Z M 6.445312 13.308594 " clip-rule="nonzero"/></clipPath><clipPath id="400095a22c"><path d="M 13.148438 19.054688 C 14.441406 19.054688 15.488281 20.101562 15.488281 21.394531 C 15.488281 22.6875 14.441406 23.734375 13.148438 23.734375 C 11.855469 23.734375 10.804688 22.6875 10.804688 21.394531 C 10.804688 20.101562 11.855469 19.054688 13.148438 19.054688 M 10.488281 30.648438 C 11.777344 30.648438 12.828125 31.695312 12.828125 32.988281 C 12.828125 34.28125 11.777344 35.328125 10.488281 35.328125 C 9.195312 35.328125 8.144531 34.28125 8.144531 32.988281 C 8.148438 31.695312 9.195312 30.648438 10.488281 30.648438 Z M 7.933594 24.054688 C 8.757812 24.054688 9.421875 24.71875 9.421875 25.542969 C 9.421875 26.367188 8.757812 27.03125 7.933594 27.03125 C 7.109375 27.03125 6.445312 26.367188 6.445312 25.542969 C 6.445312 24.71875 7.113281 24.054688 7.933594 24.054688 Z M 17.347656 13.308594 C 18.171875 13.308594 18.839844 13.976562 18.839844 14.800781 C 18.839844 15.621094 18.171875 16.289062 17.347656 16.289062 C 16.527344 16.289062 15.859375 15.621094 15.859375 14.800781 C 15.859375 13.976562 16.527344 13.308594 17.347656 13.308594 Z M 24.554688 32.429688 C 26.839844 30.792969 29.96875 30.699219 32.375 32.335938 C 37.183594 33.613281 42.742188 30.65625 42.625 25.390625 C 42.566406 22.660156 40.933594 21.03125 38.789062 19.542969 C 34.097656 16.289062 27.855469 16.265625 23.140625 19.492188 C 23.265625 18 22.089844 16.726562 20.597656 16.726562 C 19.1875 16.726562 18.046875 17.871094 18.046875 19.28125 C 18.046875 20.519531 18.925781 21.554688 20.097656 21.785156 C 20.242188 21.785156 20.378906 21.800781 20.511719 21.832031 C 21.3125 22.019531 21.90625 22.738281 21.90625 23.59375 C 21.90625 25.03125 20.28125 25.917969 19.050781 25.066406 C 18.5 24.679688 17.789062 24.464844 17.09375 24.464844 C 15.164062 24.464844 13.601562 26.027344 13.601562 27.957031 C 13.601562 29.886719 15.164062 31.453125 17.09375 31.453125 L 17.132812 31.441406 C 17.367188 31.375 17.609375 31.351562 17.855469 31.367188 C 18.964844 31.445312 19.839844 32.371094 19.839844 33.496094 C 19.839844 34.867188 18.582031 35.851562 17.277344 35.589844 C 17.195312 35.570312 17.113281 35.550781 17.035156 35.523438 C 16.898438 35.496094 16.753906 35.480469 16.609375 35.480469 C 15.429688 35.480469 14.476562 36.4375 14.476562 37.617188 C 14.476562 38.796875 15.429688 39.75 16.609375 39.75 C 18.871094 39.75 18.285156 36.960938 19.71875 38.949219 C 20.699219 40.308594 21.921875 41.484375 23.320312 42.410156 C 22.320312 41.234375 21.785156 39.808594 21.707031 38.363281 C 21.59375 37.511719 21.738281 36.480469 22.132812 35.589844 C 21.800781 36.472656 21.65625 37.410156 21.707031 38.34375 C 19.804688 16.972656 43.660156 22.167969 35.738281 28.699219 C 35.117188 29.210938 34.121094 29.328125 32.976562 29.304688 C 29.34375 28.683594 26.820312 30.046875 24.554688 32.429688 Z M 24.554688 32.429688 " clip-rule="nonzero"/></clipPath><clipPath id="49394164e4"><rect x="0" width="96" y="0" height="21"/></clipPath></defs><g clip-path="url(#64851395d6)"><path fill="#ffffff" d="M 32.375 32.335938 C 29.550781 30.414062 25.734375 30.875 23.449219 33.417969 C 21.160156 35.960938 21.105469 39.804688 23.320312 42.410156 C 25.5 43.855469 28.117188 44.695312 30.925781 44.695312 C 36.550781 44.695312 41.390625 41.332031 43.542969 36.507812 L 43.625 36.316406 C 43.78125 35.871094 43.71875 35.375 43.445312 34.980469 C 43.132812 34.53125 42.59375 34.289062 42.050781 34.359375 C 41.503906 34.425781 41.042969 34.792969 40.851562 35.308594 C 38.652344 38.621094 34.039062 38.675781 30.605469 37.664062 C 26.144531 36.351562 27.390625 31.015625 32.375 32.335938 " fill-opacity="1" fill-rule="evenodd"/></g><g clip-path="url(#8edf8aa698)"><g clip-path="url(#0c8eb959f2)"><path fill="#ffffff" d="M 21.109375 30.414062 L 43.785156 30.414062 L 43.785156 44.695312 L 21.109375 44.695312 Z M 21.109375 30.414062 " fill-opacity="1" fill-rule="nonzero"/></g></g><g clip-path="url(#21e525385d)"><path fill="#ffffff" d="M 13.148438 19.054688 C 14.441406 19.054688 15.488281 20.101562 15.488281 21.394531 C 15.488281 22.6875 14.441406 23.734375 13.148438 23.734375 C 11.855469 23.734375 10.804688 22.6875 10.804688 21.394531 C 10.804688 20.101562 11.855469 19.054688 13.148438 19.054688 M 10.488281 30.648438 C 11.777344 30.648438 12.828125 31.695312 12.828125 32.988281 C 12.828125 34.28125 11.777344 35.328125 10.488281 35.328125 C 9.195312 35.328125 8.144531 34.28125 8.144531 32.988281 C 8.148438 31.695312 9.195312 30.648438 10.488281 30.648438 Z M 7.933594 24.054688 C 8.757812 24.054688 9.421875 24.71875 9.421875 25.542969 C 9.421875 26.367188 8.757812 27.03125 7.933594 27.03125 C 7.109375 27.03125 6.445312 26.367188 6.445312 25.542969 C 6.445312 24.71875 7.113281 24.054688 7.933594 24.054688 Z M 17.347656 13.308594 C 18.171875 13.308594 18.839844 13.976562 18.839844 14.800781 C 18.839844 15.621094 18.171875 16.289062 17.347656 16.289062 C 16.527344 16.289062 15.859375 15.621094 15.859375 14.800781 C 15.859375 13.976562 16.527344 13.308594 17.347656 13.308594 Z M 24.554688 32.429688 C 26.839844 30.792969 29.96875 30.699219 32.375 32.335938 C 37.183594 33.613281 42.742188 30.65625 42.625 25.390625 C 42.566406 22.660156 40.933594 21.03125 38.789062 19.542969 C 34.097656 16.289062 27.855469 16.265625 23.140625 19.492188 C 23.265625 18 22.089844 16.726562 20.597656 16.726562 C 19.1875 16.726562 18.046875 17.871094 18.046875 19.28125 C 18.046875 20.519531 18.925781 21.554688 20.097656 21.785156 C 20.242188 21.785156 20.378906 21.800781 20.511719 21.832031 C 21.3125 22.019531 21.90625 22.738281 21.90625 23.59375 C 21.90625 25.03125 20.28125 25.917969 19.050781 25.066406 C 18.5 24.679688 17.789062 24.464844 17.09375 24.464844 C 15.164062 24.464844 13.601562 26.027344 13.601562 27.957031 C 13.601562 29.886719 15.164062 31.453125 17.09375 31.453125 L 17.132812 31.441406 C 17.367188 31.375 17.609375 31.351562 17.855469 31.367188 C 18.964844 31.445312 19.839844 32.371094 19.839844 33.496094 C 19.839844 34.867188 18.582031 35.851562 17.277344 35.589844 C 17.195312 35.570312 17.113281 35.550781 17.035156 35.523438 C 16.898438 35.496094 16.753906 35.480469 16.609375 35.480469 C 15.429688 35.480469 14.476562 36.4375 14.476562 37.617188 C 14.476562 38.796875 15.429688 39.75 16.609375 39.75 C 18.871094 39.75 18.285156 36.960938 19.71875 38.949219 C 20.699219 40.308594 21.921875 41.484375 23.320312 42.410156 C 22.320312 41.234375 21.785156 39.808594 21.707031 38.363281 C 21.59375 37.511719 21.738281 36.480469 22.132812 35.589844 C 21.800781 36.472656 21.65625 37.410156 21.707031 38.34375 C 19.804688 16.972656 43.660156 22.167969 35.738281 28.699219 C 35.117188 29.210938 34.121094 29.328125 32.976562 29.304688 C 29.34375 28.683594 26.820312 30.046875 24.554688 32.429688 Z M 24.554688 32.429688 " fill-opacity="1" fill-rule="evenodd"/></g><g clip-path="url(#f6566dabcf)"><g clip-path="url(#400095a22c)"><path fill="#ffffff" d="M 6.445312 13.308594 L 43.660156 13.308594 L 43.660156 42.410156 L 6.445312 42.410156 Z M 6.445312 13.308594 " fill-opacity="1" fill-rule="nonzero"/></g></g><g transform="matrix(1, 0, 0, 1, 46, 23)"><g clip-path="url(#49394164e4)"><g fill="#ffffff" fill-opacity="1"><g transform="translate(0.562699, 16.785596)"><g><path d="M 7.859375 -9.171875 L 5.3125 -9.171875 L 5.3125 -10.15625 C 5.3125 -10.257812 5.273438 -10.347656 5.203125 -10.421875 C 5.128906 -10.503906 5.039062 -10.546875 4.9375 -10.546875 L 3.890625 -10.546875 C 3.785156 -10.546875 3.695312 -10.503906 3.625 -10.421875 C 3.550781 -10.347656 3.515625 -10.257812 3.515625 -10.15625 L 3.515625 -7.9375 C 3.515625 -7.84375 3.550781 -7.753906 3.625 -7.671875 C 3.695312 -7.597656 3.785156 -7.5625 3.890625 -7.5625 L 5.609375 -7.5625 C 7.203125 -7.53125 8 -6.679688 8 -5.015625 L 8 -2.34375 C 8 -0.65625 7.203125 0.1875 5.609375 0.1875 L 3.34375 0.1875 C 1.757812 0.1875 0.96875 -0.65625 0.96875 -2.34375 L 0.96875 -3.640625 L 3.515625 -3.640625 L 3.515625 -2.25 C 3.515625 -2.144531 3.550781 -2.050781 3.625 -1.96875 C 3.695312 -1.894531 3.785156 -1.859375 3.890625 -1.859375 L 5.078125 -1.859375 C 5.179688 -1.859375 5.265625 -1.894531 5.328125 -1.96875 C 5.398438 -2.050781 5.4375 -2.144531 5.4375 -2.25 L 5.4375 -4.6875 C 5.4375 -4.789062 5.398438 -4.878906 5.328125 -4.953125 C 5.265625 -5.035156 5.179688 -5.078125 5.078125 -5.078125 L 3.34375 -5.078125 C 1.757812 -5.078125 0.96875 -5.921875 0.96875 -7.609375 L 0.96875 -10.09375 C 0.96875 -11.789062 1.757812 -12.640625 3.34375 -12.640625 L 5.484375 -12.640625 C 7.066406 -12.640625 7.859375 -11.789062 7.859375 -10.09375 Z M 7.859375 -9.171875 "/></g></g></g><g fill="#ffffff" fill-opacity="1"><g transform="translate(14.139453, 16.785596)"><g><path d="M 3.65625 -4.890625 L 3.65625 0 L 0.96875 0 L 0.96875 -12.4375 L 3.65625 -12.4375 L 3.65625 -7.234375 L 5.796875 -7.234375 L 5.796875 -12.4375 L 8.484375 -12.4375 L 8.484375 0 L 5.796875 0 L 5.796875 -4.890625 Z M 3.65625 -4.890625 "/></g></g></g><g fill="#ffffff" fill-opacity="1"><g transform="translate(28.35077, 16.785596)"><g><path d="M 8.296875 -10.09375 L 8.296875 -2.34375 C 8.296875 -0.65625 7.5 0.1875 5.90625 0.1875 L 3.34375 0.1875 C 1.757812 0.1875 0.96875 -0.65625 0.96875 -2.34375 L 0.96875 -10.09375 C 0.96875 -11.789062 1.757812 -12.640625 3.34375 -12.640625 L 5.90625 -12.640625 C 7.5 -12.640625 8.296875 -11.789062 8.296875 -10.09375 Z M 5.59375 -2.03125 L 5.59375 -10.421875 C 5.59375 -10.523438 5.554688 -10.613281 5.484375 -10.6875 C 5.421875 -10.769531 5.335938 -10.8125 5.234375 -10.8125 L 4.015625 -10.8125 C 3.910156 -10.8125 3.820312 -10.769531 3.75 -10.6875 C 3.6875 -10.613281 3.65625 -10.523438 3.65625 -10.421875 L 3.65625 -2.03125 C 3.65625 -1.9375 3.6875 -1.847656 3.75 -1.765625 C 3.820312 -1.691406 3.910156 -1.65625 4.015625 -1.65625 L 5.234375 -1.65625 C 5.335938 -1.65625 5.421875 -1.691406 5.484375 -1.765625 C 5.554688 -1.847656 5.59375 -1.9375 5.59375 -2.03125 Z M 5.59375 -2.03125 "/></g></g></g><g fill="#ffffff" fill-opacity="1"><g transform="translate(42.427481, 16.785596)"><g><path d="M 5.8125 -12.4375 C 7.394531 -12.4375 8.1875 -11.59375 8.1875 -9.90625 L 8.1875 -7.421875 C 8.1875 -5.734375 7.394531 -4.890625 5.8125 -4.890625 L 3.640625 -4.890625 L 3.640625 0 L 0.9375 0 L 0.9375 -12.4375 Z M 5.5 -7.109375 L 5.5 -10.21875 C 5.5 -10.320312 5.460938 -10.410156 5.390625 -10.484375 C 5.328125 -10.554688 5.242188 -10.59375 5.140625 -10.59375 L 3.640625 -10.59375 L 3.640625 -6.734375 L 5.140625 -6.734375 C 5.242188 -6.734375 5.328125 -6.769531 5.390625 -6.84375 C 5.460938 -6.925781 5.5 -7.015625 5.5 -7.109375 Z M 5.5 -7.109375 "/></g></g></g><g fill="#ffffff" fill-opacity="1"><g transform="translate(55.773484, 16.785596)"><g><path d="M 5.8125 -12.4375 C 7.394531 -12.4375 8.1875 -11.59375 8.1875 -9.90625 L 8.1875 -7.421875 C 8.1875 -5.734375 7.394531 -4.890625 5.8125 -4.890625 L 3.640625 -4.890625 L 3.640625 0 L 0.9375 0 L 0.9375 -12.4375 Z M 5.5 -7.109375 L 5.5 -10.21875 C 5.5 -10.320312 5.460938 -10.410156 5.390625 -10.484375 C 5.328125 -10.554688 5.242188 -10.59375 5.140625 -10.59375 L 3.640625 -10.59375 L 3.640625 -6.734375 L 5.140625 -6.734375 C 5.242188 -6.734375 5.328125 -6.769531 5.390625 -6.84375 C 5.460938 -6.925781 5.5 -7.015625 5.5 -7.109375 Z M 5.5 -7.109375 "/></g></g></g><g fill="#ffffff" fill-opacity="1"><g transform="translate(69.119487, 16.785596)"><g><path d="M 3.65625 -2.234375 L 6.640625 -2.234375 L 6.640625 0 L 0.96875 0 L 0.96875 -12.4375 L 6.640625 -12.4375 L 6.640625 -10.25 L 3.65625 -10.25 L 3.65625 -7.328125 L 6.4375 -7.328125 L 6.4375 -5.21875 L 3.65625 -5.21875 Z M 3.65625 -2.234375 "/></g></g></g><g fill="#ffffff" fill-opacity="1"><g transform="translate(81.119455, 16.785596)"><g><path d="M 3.65625 -5.09375 L 3.65625 0 L 0.96875 0 L 0.96875 -12.4375 L 5.75 -12.4375 C 7.34375 -12.4375 8.140625 -11.59375 8.140625 -9.90625 L 8.140625 -8.46875 C 8.140625 -7.4375 7.773438 -6.78125 7.046875 -6.5 C 7.679688 -6.269531 8 -5.742188 8 -4.921875 L 8 0 L 5.3125 0 L 5.3125 -4.71875 C 5.3125 -4.96875 5.1875 -5.09375 4.9375 -5.09375 Z M 3.65625 -10.625 L 3.65625 -6.984375 L 5.078125 -6.984375 C 5.179688 -6.984375 5.265625 -7.019531 5.328125 -7.09375 C 5.398438 -7.175781 5.4375 -7.265625 5.4375 -7.359375 L 5.4375 -10.234375 C 5.4375 -10.335938 5.398438 -10.425781 5.328125 -10.5 C 5.265625 -10.582031 5.179688 -10.625 5.078125 -10.625 Z M 3.65625 -10.625 "/></g></g></g></g></g></svg>