<svg xmlns="http://www.w3.org/2000/svg" xmlns:xlink="http://www.w3.org/1999/xlink" width="500" zoomAndPan="magnify" viewBox="0 0 375 374.999991" height="500" preserveAspectRatio="xMidYMid meet" version="1.0"><defs><g/><clipPath id="7d1d609fcf"><path d="M 154 208 L 368 208 L 368 339.824219 L 154 339.824219 Z M 154 208 " clip-rule="nonzero"/></clipPath><clipPath id="f3f3049d39"><path d="M 154 208.125 L 368 208.125 L 368 339.824219 L 154 339.824219 Z M 154 208.125 " clip-rule="nonzero"/></clipPath><clipPath id="650246d237"><path d="M 257.921875 219.855469 C 230.503906 201.199219 193.519531 205.679688 171.34375 230.339844 C 149.171875 255 148.636719 292.253906 170.09375 317.539062 C 191.246094 331.539062 216.609375 339.691406 243.871094 339.691406 C 298.414062 339.691406 345.335938 307.066406 366.195312 260.273438 L 367 258.429688 C 368.527344 254.128906 367.917969 249.300781 365.265625 245.484375 C 362.234375 241.109375 357.015625 238.785156 351.734375 239.453125 C 346.453125 240.117188 341.976562 243.664062 340.121094 248.652344 C 318.773438 280.796875 274.058594 281.324219 240.753906 271.511719 C 197.488281 258.769531 209.570312 207.023438 257.921875 219.855469 " clip-rule="nonzero"/></clipPath><clipPath id="f1a2b8b27d"><path d="M 6.335938 35.324219 L 358 35.324219 L 358 318 L 6.335938 318 Z M 6.335938 35.324219 " clip-rule="nonzero"/></clipPath><clipPath id="c670bdbec1"><path d="M 6.449219 35.324219 L 357.894531 35.324219 L 357.894531 317.910156 L 6.449219 317.910156 Z M 6.449219 35.324219 " clip-rule="nonzero"/></clipPath><clipPath id="eca86a90aa"><path d="M 71.441406 91.035156 C 83.980469 91.035156 94.140625 101.195312 94.140625 113.734375 C 94.140625 126.269531 83.980469 136.429688 71.441406 136.429688 C 58.910156 136.429688 48.746094 126.269531 48.746094 113.734375 C 48.738281 101.195312 58.910156 91.035156 71.441406 91.035156 M 45.648438 203.476562 C 58.179688 203.476562 68.34375 213.636719 68.34375 226.175781 C 68.34375 238.714844 58.179688 248.867188 45.648438 248.867188 C 33.109375 248.867188 22.949219 238.707031 22.949219 226.175781 C 22.957031 213.636719 33.117188 203.476562 45.648438 203.476562 Z M 20.890625 139.515625 C 28.867188 139.515625 35.332031 145.988281 35.332031 153.964844 C 35.332031 161.941406 28.867188 168.40625 20.890625 168.40625 C 12.914062 168.40625 6.449219 161.941406 6.449219 153.964844 C 6.449219 145.988281 12.917969 139.515625 20.890625 139.515625 Z M 112.1875 35.324219 C 120.171875 35.324219 126.636719 41.792969 126.636719 49.769531 C 126.636719 57.75 120.171875 64.210938 112.1875 64.210938 C 104.210938 64.210938 97.746094 57.742188 97.746094 49.769531 C 97.746094 41.792969 104.210938 35.324219 112.1875 35.324219 Z M 182.054688 220.75 C 204.230469 204.863281 234.554688 203.953125 257.917969 219.855469 C 304.539062 232.222656 358.433594 203.53125 357.316406 152.488281 C 356.742188 125.996094 340.90625 110.226562 320.113281 95.789062 C 274.613281 64.210938 214.085938 64 168.375 95.285156 C 169.554688 80.828125 158.167969 68.480469 143.699219 68.480469 C 130.027344 68.480469 118.945312 79.5625 118.945312 93.238281 C 118.945312 105.253906 127.5 115.273438 138.855469 117.519531 L 138.867188 117.519531 C 140.246094 117.519531 141.589844 117.683594 142.867188 117.980469 C 150.617188 119.792969 156.386719 126.746094 156.386719 135.039062 C 156.386719 149.015625 140.640625 157.609375 128.714844 149.324219 C 123.347656 145.589844 116.449219 143.503906 109.730469 143.503906 C 91.023438 143.503906 75.859375 158.675781 75.859375 177.382812 C 75.859375 196.09375 91.023438 211.261719 109.730469 211.261719 L 110.113281 211.148438 C 112.371094 210.535156 114.734375 210.285156 117.117188 210.457031 C 127.871094 211.207031 136.347656 220.167969 136.347656 231.101562 C 136.347656 244.386719 124.140625 253.949219 111.511719 251.382812 C 110.710938 251.21875 109.925781 251.011719 109.160156 250.765625 C 107.820312 250.492188 106.4375 250.347656 105.023438 250.347656 C 93.589844 250.347656 84.324219 259.617188 84.324219 271.046875 C 84.324219 282.480469 93.589844 291.742188 105.023438 291.742188 C 126.972656 291.742188 121.277344 264.671875 135.175781 283.964844 C 144.679688 297.167969 156.523438 308.554688 170.101562 317.539062 C 160.421875 306.132812 155.21875 292.292969 154.453125 278.277344 C 153.347656 270.019531 154.742188 260.019531 158.570312 251.375 C 155.355469 259.945312 153.976562 269.050781 154.4375 278.085938 C 136.007812 70.859375 367.339844 121.25 290.515625 184.574219 C 284.519531 189.519531 274.859375 190.65625 263.738281 190.453125 C 228.496094 184.417969 204.023438 197.625 182.054688 220.75 Z M 182.054688 220.75 " clip-rule="nonzero"/></clipPath></defs><g clip-path="url(#7d1d609fcf)"><path fill="#ffffff" d="M 257.921875 219.855469 C 230.503906 201.199219 193.519531 205.679688 171.34375 230.339844 C 149.171875 255 148.636719 292.253906 170.09375 317.539062 C 191.246094 331.539062 216.609375 339.691406 243.871094 339.691406 C 298.414062 339.691406 345.335938 307.066406 366.195312 260.273438 L 367 258.429688 C 368.527344 254.128906 367.917969 249.300781 365.265625 245.484375 C 362.234375 241.109375 357.015625 238.785156 351.734375 239.453125 C 346.453125 240.117188 341.976562 243.664062 340.121094 248.652344 C 318.773438 280.796875 274.058594 281.324219 240.753906 271.511719 C 197.488281 258.769531 209.570312 207.023438 257.921875 219.855469 " fill-opacity="1" fill-rule="evenodd"/></g><g clip-path="url(#f3f3049d39)"><g clip-path="url(#650246d237)"><path fill="#ffffff" d="M 148.644531 201.199219 L 368.539062 201.199219 L 368.539062 339.691406 L 148.644531 339.691406 Z M 148.644531 201.199219 " fill-opacity="1" fill-rule="nonzero"/></g></g><g clip-path="url(#f1a2b8b27d)"><path fill="#ffffff" d="M 71.441406 91.035156 C 83.980469 91.035156 94.140625 101.195312 94.140625 113.734375 C 94.140625 126.269531 83.980469 136.429688 71.441406 136.429688 C 58.910156 136.429688 48.746094 126.269531 48.746094 113.734375 C 48.738281 101.195312 58.910156 91.035156 71.441406 91.035156 M 45.648438 203.476562 C 58.179688 203.476562 68.34375 213.636719 68.34375 226.175781 C 68.34375 238.714844 58.179688 248.867188 45.648438 248.867188 C 33.109375 248.867188 22.949219 238.707031 22.949219 226.175781 C 22.957031 213.636719 33.117188 203.476562 45.648438 203.476562 Z M 20.890625 139.515625 C 28.867188 139.515625 35.332031 145.988281 35.332031 153.964844 C 35.332031 161.941406 28.867188 168.40625 20.890625 168.40625 C 12.914062 168.40625 6.449219 161.941406 6.449219 153.964844 C 6.449219 145.988281 12.917969 139.515625 20.890625 139.515625 Z M 112.1875 35.324219 C 120.171875 35.324219 126.636719 41.792969 126.636719 49.769531 C 126.636719 57.75 120.171875 64.210938 112.1875 64.210938 C 104.210938 64.210938 97.746094 57.742188 97.746094 49.769531 C 97.746094 41.792969 104.210938 35.324219 112.1875 35.324219 Z M 182.054688 220.75 C 204.230469 204.863281 234.554688 203.953125 257.917969 219.855469 C 304.539062 232.222656 358.433594 203.53125 357.316406 152.488281 C 356.742188 125.996094 340.90625 110.226562 320.113281 95.789062 C 274.613281 64.210938 214.085938 64 168.375 95.285156 C 169.554688 80.828125 158.167969 68.480469 143.699219 68.480469 C 130.027344 68.480469 118.945312 79.5625 118.945312 93.238281 C 118.945312 105.253906 127.5 115.273438 138.855469 117.519531 L 138.867188 117.519531 C 140.246094 117.519531 141.589844 117.683594 142.867188 117.980469 C 150.617188 119.792969 156.386719 126.746094 156.386719 135.039062 C 156.386719 149.015625 140.640625 157.609375 128.714844 149.324219 C 123.347656 145.589844 116.449219 143.503906 109.730469 143.503906 C 91.023438 143.503906 75.859375 158.675781 75.859375 177.382812 C 75.859375 196.09375 91.023438 211.261719 109.730469 211.261719 L 110.113281 211.148438 C 112.371094 210.53125 114.734375 210.285156 117.117188 210.457031 C 127.871094 211.207031 136.347656 220.167969 136.347656 231.101562 C 136.347656 244.386719 124.140625 253.949219 111.511719 251.382812 C 110.710938 251.21875 109.925781 251.011719 109.160156 250.765625 C 107.820312 250.492188 106.4375 250.347656 105.023438 250.347656 C 93.589844 250.347656 84.324219 259.617188 84.324219 271.046875 C 84.324219 282.480469 93.589844 291.742188 105.023438 291.742188 C 126.972656 291.742188 121.277344 264.671875 135.175781 283.964844 C 144.679688 297.167969 156.523438 308.554688 170.101562 317.539062 C 160.421875 306.132812 155.21875 292.292969 154.453125 278.277344 C 153.347656 270.019531 154.742188 260.019531 158.570312 251.375 C 155.355469 259.945312 153.976562 269.050781 154.4375 278.085938 C 136.007812 70.859375 367.339844 121.25 290.515625 184.574219 C 284.519531 189.519531 274.859375 190.65625 263.738281 190.453125 C 228.496094 184.417969 204.023438 197.625 182.054688 220.75 Z M 182.054688 220.75 " fill-opacity="1" fill-rule="evenodd"/></g><g clip-path="url(#c670bdbec1)"><g clip-path="url(#eca86a90aa)"><path fill="#ffffff" d="M 6.449219 35.324219 L 367.339844 35.324219 L 367.339844 317.539062 L 6.449219 317.539062 Z M 6.449219 35.324219 " fill-opacity="1" fill-rule="nonzero"/></g></g><g fill="#000000" fill-opacity="1"><g transform="translate(41.218492, 386.339799)"><g><path d="M 2.5625 0 L 2.5625 -0.15625 L 2.765625 -0.15625 C 3.640625 -0.15625 4.078125 -0.539062 4.078125 -1.3125 L 4.078125 -11.265625 L 2.765625 -11.265625 C 1.953125 -11.265625 1.382812 -11.113281 1.0625 -10.8125 C 0.738281 -10.507812 0.554688 -9.957031 0.515625 -9.15625 L 0.484375 -8.625 L 0.3125 -8.625 L 0.421875 -11.421875 L 9.390625 -11.421875 L 9.484375 -8.625 L 9.328125 -8.625 L 9.296875 -9.15625 C 9.242188 -9.957031 9.054688 -10.507812 8.734375 -10.8125 C 8.410156 -11.113281 7.847656 -11.265625 7.046875 -11.265625 L 5.703125 -11.265625 L 5.703125 -1.3125 C 5.703125 -0.539062 6.140625 -0.15625 7.015625 -0.15625 L 7.21875 -0.15625 L 7.21875 0 Z M 2.5625 0 "/></g></g></g><g fill="#000000" fill-opacity="1"><g transform="translate(51.024133, 386.339799)"><g><path d="M 0.28125 0 L 0.28125 -0.15625 L 0.421875 -0.15625 C 0.910156 -0.15625 1.25 -0.257812 1.4375 -0.46875 C 1.632812 -0.6875 1.734375 -1.070312 1.734375 -1.625 L 1.734375 -10.5625 C 1.734375 -11.101562 1.640625 -11.476562 1.453125 -11.6875 C 1.273438 -11.894531 0.941406 -12 0.453125 -12 L 0.375 -12 L 0.375 -12.15625 L 3.234375 -12.15625 L 3.234375 -8.921875 C 3.234375 -8.617188 3.234375 -8.3125 3.234375 -8 C 3.234375 -7.6875 3.226562 -7.378906 3.21875 -7.078125 L 3.25 -7.078125 C 3.382812 -7.566406 3.585938 -7.929688 3.859375 -8.171875 C 4.128906 -8.410156 4.421875 -8.5625 4.734375 -8.625 C 5.054688 -8.695312 5.347656 -8.734375 5.609375 -8.734375 C 6.566406 -8.734375 7.273438 -8.484375 7.734375 -7.984375 C 8.203125 -7.492188 8.4375 -6.695312 8.4375 -5.59375 L 8.4375 -1.625 C 8.4375 -1.070312 8.519531 -0.6875 8.6875 -0.46875 C 8.851562 -0.257812 9.164062 -0.15625 9.625 -0.15625 L 9.71875 -0.15625 L 9.71875 0 L 6.921875 0 L 6.921875 -6.140625 C 6.921875 -6.835938 6.789062 -7.40625 6.53125 -7.84375 C 6.269531 -8.28125 5.832031 -8.5 5.21875 -8.5 C 4.71875 -8.5 4.320312 -8.363281 4.03125 -8.09375 C 3.738281 -7.832031 3.53125 -7.488281 3.40625 -7.0625 C 3.289062 -6.644531 3.234375 -6.207031 3.234375 -5.75 L 3.234375 -1.625 C 3.234375 -1.070312 3.320312 -0.6875 3.5 -0.46875 C 3.6875 -0.257812 4.023438 -0.15625 4.515625 -0.15625 L 4.59375 -0.15625 L 4.59375 0 Z M 0.28125 0 "/></g></g></g><g fill="#000000" fill-opacity="1"><g transform="translate(61.181691, 386.339799)"><g><path d="M 4.671875 0.15625 C 3.472656 0.15625 2.539062 -0.222656 1.875 -0.984375 C 1.207031 -1.753906 0.875 -2.832031 0.875 -4.21875 C 0.875 -5.71875 1.179688 -6.84375 1.796875 -7.59375 C 2.410156 -8.351562 3.289062 -8.734375 4.4375 -8.734375 C 5.46875 -8.734375 6.28125 -8.410156 6.875 -7.765625 C 7.46875 -7.128906 7.765625 -6.175781 7.765625 -4.90625 L 7.765625 -4.53125 L 2.4375 -4.53125 C 2.445312 -2.894531 2.625 -1.726562 2.96875 -1.03125 C 3.3125 -0.34375 3.894531 0 4.71875 0 C 5.3125 0 5.8125 -0.160156 6.21875 -0.484375 C 6.632812 -0.816406 6.90625 -1.3125 7.03125 -1.96875 C 7.15625 -1.945312 7.25 -1.878906 7.3125 -1.765625 C 7.375 -1.660156 7.40625 -1.550781 7.40625 -1.4375 C 7.40625 -1.226562 7.300781 -1 7.09375 -0.75 C 6.894531 -0.5 6.59375 -0.285156 6.1875 -0.109375 C 5.789062 0.0664062 5.285156 0.15625 4.671875 0.15625 Z M 2.4375 -4.6875 L 6.140625 -4.6875 C 6.140625 -6.082031 6.003906 -7.078125 5.734375 -7.671875 C 5.472656 -8.273438 5.03125 -8.578125 4.40625 -8.578125 C 3.75 -8.578125 3.269531 -8.273438 2.96875 -7.671875 C 2.664062 -7.078125 2.488281 -6.082031 2.4375 -4.6875 Z M 1.984375 -9.703125 L 1.984375 -9.859375 C 2.296875 -10.203125 2.613281 -10.597656 2.9375 -11.046875 C 3.257812 -11.492188 3.53125 -11.894531 3.75 -12.25 L 4.9375 -12.25 C 5.144531 -11.894531 5.410156 -11.492188 5.734375 -11.046875 C 6.066406 -10.597656 6.390625 -10.203125 6.703125 -9.859375 L 6.703125 -9.703125 L 6.546875 -9.703125 C 6.335938 -9.816406 6.09375 -9.96875 5.8125 -10.15625 C 5.53125 -10.34375 5.253906 -10.535156 4.984375 -10.734375 C 4.710938 -10.941406 4.503906 -11.128906 4.359375 -11.296875 C 4.179688 -11.128906 3.957031 -10.941406 3.6875 -10.734375 C 3.425781 -10.535156 3.15625 -10.34375 2.875 -10.15625 C 2.59375 -9.96875 2.347656 -9.816406 2.140625 -9.703125 Z M 1.984375 -9.703125 "/></g></g></g><g fill="#000000" fill-opacity="1"><g transform="translate(98.772668, 386.339799)"><g><path d="M 4.59375 0.15625 C 3.4375 0.15625 2.523438 -0.207031 1.859375 -0.9375 C 1.203125 -1.675781 0.875 -2.796875 0.875 -4.296875 C 0.875 -5.796875 1.191406 -6.910156 1.828125 -7.640625 C 2.460938 -8.367188 3.398438 -8.734375 4.640625 -8.734375 C 5.796875 -8.734375 6.703125 -8.367188 7.359375 -7.640625 C 8.023438 -6.910156 8.359375 -5.796875 8.359375 -4.296875 C 8.359375 -2.796875 8.035156 -1.675781 7.390625 -0.9375 C 6.753906 -0.207031 5.820312 0.15625 4.59375 0.15625 Z M 4.625 0 C 5.40625 0 5.960938 -0.328125 6.296875 -0.984375 C 6.628906 -1.648438 6.796875 -2.753906 6.796875 -4.296875 C 6.796875 -5.835938 6.628906 -6.9375 6.296875 -7.59375 C 5.960938 -8.25 5.398438 -8.578125 4.609375 -8.578125 C 3.816406 -8.578125 3.253906 -8.25 2.921875 -7.59375 C 2.597656 -6.9375 2.4375 -5.835938 2.4375 -4.296875 C 2.4375 -2.753906 2.601562 -1.648438 2.9375 -0.984375 C 3.269531 -0.328125 3.832031 0 4.625 0 Z M 2.203125 -9.703125 L 2.203125 -9.859375 C 2.515625 -10.203125 2.832031 -10.597656 3.15625 -11.046875 C 3.476562 -11.492188 3.75 -11.894531 3.96875 -12.25 L 5.15625 -12.25 C 5.363281 -11.894531 5.628906 -11.492188 5.953125 -11.046875 C 6.285156 -10.597656 6.609375 -10.203125 6.921875 -9.859375 L 6.921875 -9.703125 L 6.765625 -9.703125 C 6.554688 -9.816406 6.3125 -9.96875 6.03125 -10.15625 C 5.75 -10.34375 5.472656 -10.535156 5.203125 -10.734375 C 4.929688 -10.941406 4.722656 -11.128906 4.578125 -11.296875 C 4.398438 -11.128906 4.175781 -10.941406 3.90625 -10.734375 C 3.644531 -10.535156 3.375 -10.34375 3.09375 -10.15625 C 2.8125 -9.96875 2.566406 -9.816406 2.359375 -9.703125 Z M 4.609375 2.921875 C 4.398438 2.921875 4.226562 2.851562 4.09375 2.71875 C 3.96875 2.59375 3.90625 2.363281 3.90625 2.03125 C 3.90625 1.695312 3.96875 1.460938 4.09375 1.328125 C 4.226562 1.203125 4.398438 1.140625 4.609375 1.140625 C 4.796875 1.140625 4.957031 1.203125 5.09375 1.328125 C 5.238281 1.460938 5.3125 1.695312 5.3125 2.03125 C 5.3125 2.363281 5.238281 2.59375 5.09375 2.71875 C 4.957031 2.851562 4.796875 2.921875 4.609375 2.921875 Z M 4.609375 2.921875 "/></g></g></g><g fill="#000000" fill-opacity="1"><g transform="translate(108.002454, 386.339799)"><g><path d="M 2.5625 -10.109375 C 2.351562 -10.109375 2.179688 -10.175781 2.046875 -10.3125 C 1.921875 -10.445312 1.859375 -10.679688 1.859375 -11.015625 C 1.859375 -11.347656 1.921875 -11.578125 2.046875 -11.703125 C 2.179688 -11.835938 2.351562 -11.90625 2.5625 -11.90625 C 2.75 -11.90625 2.910156 -11.835938 3.046875 -11.703125 C 3.191406 -11.578125 3.265625 -11.347656 3.265625 -11.015625 C 3.265625 -10.679688 3.191406 -10.445312 3.046875 -10.3125 C 2.910156 -10.175781 2.75 -10.109375 2.5625 -10.109375 Z M 0.375 0 L 0.375 -0.15625 L 0.578125 -0.15625 C 1.046875 -0.15625 1.378906 -0.25 1.578125 -0.4375 C 1.785156 -0.632812 1.890625 -0.953125 1.890625 -1.390625 L 1.890625 -7.171875 C 1.890625 -7.617188 1.785156 -7.9375 1.578125 -8.125 C 1.378906 -8.320312 1.046875 -8.421875 0.578125 -8.421875 L 0.53125 -8.421875 L 0.53125 -8.578125 L 3.390625 -8.578125 L 3.390625 -1.46875 C 3.390625 -1 3.488281 -0.660156 3.6875 -0.453125 C 3.894531 -0.253906 4.234375 -0.15625 4.703125 -0.15625 L 4.90625 -0.15625 L 4.90625 0 Z M 0.375 0 "/></g></g></g><g fill="#000000" fill-opacity="1"><g transform="translate(116.720356, 386.339799)"><g><path d="M 4.09375 0.15625 C 3.050781 0.15625 2.253906 -0.21875 1.703125 -0.96875 C 1.148438 -1.726562 0.875 -2.835938 0.875 -4.296875 C 0.875 -7.253906 1.9375 -8.734375 4.0625 -8.734375 C 4.789062 -8.734375 5.359375 -8.535156 5.765625 -8.140625 C 6.171875 -7.753906 6.445312 -7.160156 6.59375 -6.359375 L 6.625 -6.359375 C 6.601562 -6.929688 6.59375 -7.476562 6.59375 -8 C 6.59375 -8.53125 6.59375 -8.9375 6.59375 -9.21875 L 6.59375 -10.75 C 6.59375 -11.195312 6.488281 -11.515625 6.28125 -11.703125 C 6.082031 -11.898438 5.75 -12 5.28125 -12 L 5.234375 -12 L 5.234375 -12.15625 L 8.09375 -12.15625 L 8.09375 -1.390625 C 8.09375 -0.953125 8.191406 -0.632812 8.390625 -0.4375 C 8.597656 -0.25 8.9375 -0.15625 9.40625 -0.15625 L 9.53125 -0.15625 L 9.53125 0 L 6.609375 0 L 6.609375 -2.25 L 6.578125 -2.25 C 6.441406 -1.4375 6.164062 -0.832031 5.75 -0.4375 C 5.34375 -0.0390625 4.789062 0.15625 4.09375 0.15625 Z M 4.375 -0.078125 C 5.125 -0.078125 5.679688 -0.421875 6.046875 -1.109375 C 6.410156 -1.804688 6.59375 -2.867188 6.59375 -4.296875 C 6.59375 -5.691406 6.414062 -6.738281 6.0625 -7.4375 C 5.71875 -8.144531 5.160156 -8.5 4.390625 -8.5 C 3.679688 -8.5 3.175781 -8.175781 2.875 -7.53125 C 2.582031 -6.894531 2.4375 -5.820312 2.4375 -4.3125 C 2.4375 -2.789062 2.582031 -1.703125 2.875 -1.046875 C 3.175781 -0.398438 3.675781 -0.078125 4.375 -0.078125 Z M 4.375 -0.078125 "/></g></g></g><g fill="#000000" fill-opacity="1"><g transform="translate(168.483914, 386.339799)"><g><path d="M 3.4375 0.15625 C 2.613281 0.15625 1.96875 -0.0507812 1.5 -0.46875 C 1.03125 -0.894531 0.796875 -1.472656 0.796875 -2.203125 C 0.796875 -3.023438 1.097656 -3.640625 1.703125 -4.046875 C 2.304688 -4.453125 3.222656 -4.675781 4.453125 -4.71875 L 5.78125 -4.765625 L 5.78125 -5.96875 C 5.78125 -6.5625 5.742188 -7.050781 5.671875 -7.4375 C 5.609375 -7.820312 5.46875 -8.109375 5.25 -8.296875 C 5.039062 -8.484375 4.71875 -8.578125 4.28125 -8.578125 C 3.664062 -8.578125 3.269531 -8.382812 3.09375 -8 C 2.914062 -7.613281 2.828125 -7.007812 2.828125 -6.1875 C 2.378906 -6.1875 2.039062 -6.257812 1.8125 -6.40625 C 1.582031 -6.5625 1.46875 -6.8125 1.46875 -7.15625 C 1.46875 -7.539062 1.597656 -7.847656 1.859375 -8.078125 C 2.117188 -8.304688 2.460938 -8.472656 2.890625 -8.578125 C 3.328125 -8.679688 3.816406 -8.734375 4.359375 -8.734375 C 5.335938 -8.734375 6.066406 -8.523438 6.546875 -8.109375 C 7.035156 -7.691406 7.28125 -6.976562 7.28125 -5.96875 L 7.28125 -1.1875 C 7.28125 -0.800781 7.351562 -0.53125 7.5 -0.375 C 7.65625 -0.226562 7.910156 -0.15625 8.265625 -0.15625 L 8.3125 -0.15625 L 8.3125 0 L 5.90625 0 L 5.90625 -1.6875 L 5.875 -1.6875 C 5.695312 -1.039062 5.390625 -0.570312 4.953125 -0.28125 C 4.523438 0.0078125 4.019531 0.15625 3.4375 0.15625 Z M 3.765625 -0.0625 C 4.160156 -0.0625 4.507812 -0.160156 4.8125 -0.359375 C 5.113281 -0.566406 5.347656 -0.84375 5.515625 -1.1875 C 5.691406 -1.53125 5.78125 -1.894531 5.78125 -2.28125 L 5.78125 -4.59375 L 4.75 -4.546875 C 3.84375 -4.503906 3.21875 -4.296875 2.875 -3.921875 C 2.53125 -3.546875 2.359375 -2.914062 2.359375 -2.03125 C 2.359375 -0.71875 2.828125 -0.0625 3.765625 -0.0625 Z M 4.390625 -9.703125 C 3.878906 -9.703125 3.46875 -9.796875 3.15625 -9.984375 C 2.84375 -10.179688 2.601562 -10.445312 2.4375 -10.78125 C 2.28125 -11.125 2.1875 -11.492188 2.15625 -11.890625 L 2.3125 -11.890625 C 2.425781 -11.503906 2.640625 -11.222656 2.953125 -11.046875 C 3.265625 -10.878906 3.742188 -10.796875 4.390625 -10.796875 C 5.046875 -10.796875 5.523438 -10.878906 5.828125 -11.046875 C 6.140625 -11.222656 6.351562 -11.503906 6.46875 -11.890625 L 6.640625 -11.890625 C 6.609375 -11.492188 6.507812 -11.125 6.34375 -10.78125 C 6.1875 -10.445312 5.945312 -10.179688 5.625 -9.984375 C 5.3125 -9.796875 4.898438 -9.703125 4.390625 -9.703125 Z M 4.390625 -9.703125 "/></g></g></g><g fill="#000000" fill-opacity="1"><g transform="translate(191.406406, 386.339799)"><g><path d="M 5.734375 0.15625 C 5.035156 0.15625 4.476562 -0.0390625 4.0625 -0.4375 C 3.65625 -0.832031 3.382812 -1.4375 3.25 -2.25 L 3.21875 -2.25 L 3.21875 0 L 0.28125 0 L 0.28125 -0.15625 L 0.421875 -0.15625 C 0.890625 -0.15625 1.222656 -0.25 1.421875 -0.4375 C 1.628906 -0.632812 1.734375 -0.953125 1.734375 -1.390625 L 1.734375 -10.75 C 1.734375 -11.195312 1.628906 -11.515625 1.421875 -11.703125 C 1.222656 -11.898438 0.890625 -12 0.421875 -12 L 0.375 -12 L 0.375 -12.15625 L 3.234375 -12.15625 L 3.234375 -9.21875 C 3.234375 -8.9375 3.234375 -8.53125 3.234375 -8 C 3.234375 -7.476562 3.222656 -6.929688 3.203125 -6.359375 L 3.234375 -6.359375 C 3.378906 -7.160156 3.65625 -7.753906 4.0625 -8.140625 C 4.46875 -8.535156 5.035156 -8.734375 5.765625 -8.734375 C 7.878906 -8.734375 8.9375 -7.253906 8.9375 -4.296875 C 8.9375 -2.835938 8.660156 -1.726562 8.109375 -0.96875 C 7.566406 -0.21875 6.773438 0.15625 5.734375 0.15625 Z M 5.453125 -0.078125 C 6.148438 -0.078125 6.644531 -0.398438 6.9375 -1.046875 C 7.238281 -1.703125 7.390625 -2.789062 7.390625 -4.3125 C 7.390625 -5.820312 7.238281 -6.894531 6.9375 -7.53125 C 6.644531 -8.175781 6.144531 -8.5 5.4375 -8.5 C 4.65625 -8.5 4.09375 -8.144531 3.75 -7.4375 C 3.40625 -6.738281 3.234375 -5.691406 3.234375 -4.296875 C 3.234375 -2.867188 3.410156 -1.804688 3.765625 -1.109375 C 4.128906 -0.421875 4.691406 -0.078125 5.453125 -0.078125 Z M 5.453125 -0.078125 "/></g></g></g><g fill="#000000" fill-opacity="1"><g transform="translate(201.228045, 386.339799)"><g><path d="M 3.4375 0.15625 C 2.613281 0.15625 1.96875 -0.0507812 1.5 -0.46875 C 1.03125 -0.894531 0.796875 -1.472656 0.796875 -2.203125 C 0.796875 -3.023438 1.097656 -3.640625 1.703125 -4.046875 C 2.304688 -4.453125 3.222656 -4.675781 4.453125 -4.71875 L 5.78125 -4.765625 L 5.78125 -5.96875 C 5.78125 -6.5625 5.742188 -7.050781 5.671875 -7.4375 C 5.609375 -7.820312 5.46875 -8.109375 5.25 -8.296875 C 5.039062 -8.484375 4.71875 -8.578125 4.28125 -8.578125 C 3.664062 -8.578125 3.269531 -8.382812 3.09375 -8 C 2.914062 -7.613281 2.828125 -7.007812 2.828125 -6.1875 C 2.378906 -6.1875 2.039062 -6.257812 1.8125 -6.40625 C 1.582031 -6.5625 1.46875 -6.8125 1.46875 -7.15625 C 1.46875 -7.539062 1.597656 -7.847656 1.859375 -8.078125 C 2.117188 -8.304688 2.460938 -8.472656 2.890625 -8.578125 C 3.328125 -8.679688 3.816406 -8.734375 4.359375 -8.734375 C 5.335938 -8.734375 6.066406 -8.523438 6.546875 -8.109375 C 7.035156 -7.691406 7.28125 -6.976562 7.28125 -5.96875 L 7.28125 -1.1875 C 7.28125 -0.800781 7.351562 -0.53125 7.5 -0.375 C 7.65625 -0.226562 7.910156 -0.15625 8.265625 -0.15625 L 8.3125 -0.15625 L 8.3125 0 L 5.90625 0 L 5.90625 -1.6875 L 5.875 -1.6875 C 5.695312 -1.039062 5.390625 -0.570312 4.953125 -0.28125 C 4.523438 0.0078125 4.019531 0.15625 3.4375 0.15625 Z M 3.765625 -0.0625 C 4.160156 -0.0625 4.507812 -0.160156 4.8125 -0.359375 C 5.113281 -0.566406 5.347656 -0.84375 5.515625 -1.1875 C 5.691406 -1.53125 5.78125 -1.894531 5.78125 -2.28125 L 5.78125 -4.59375 L 4.75 -4.546875 C 3.84375 -4.503906 3.21875 -4.296875 2.875 -3.921875 C 2.53125 -3.546875 2.359375 -2.914062 2.359375 -2.03125 C 2.359375 -0.71875 2.828125 -0.0625 3.765625 -0.0625 Z M 4.09375 -9.4375 L 3.84375 -10.703125 C 4.195312 -10.703125 4.492188 -10.773438 4.734375 -10.921875 C 4.984375 -11.066406 5.109375 -11.390625 5.109375 -11.890625 C 5.109375 -12.316406 5.019531 -12.597656 4.84375 -12.734375 C 4.664062 -12.878906 4.445312 -12.953125 4.1875 -12.953125 C 3.925781 -12.953125 3.695312 -12.875 3.5 -12.71875 C 3.3125 -12.5625 3.21875 -12.21875 3.21875 -11.6875 C 2.988281 -11.726562 2.832031 -11.800781 2.75 -11.90625 C 2.664062 -12.007812 2.625 -12.125 2.625 -12.25 C 2.625 -12.550781 2.785156 -12.769531 3.109375 -12.90625 C 3.429688 -13.050781 3.804688 -13.125 4.234375 -13.125 C 4.796875 -13.125 5.253906 -13.015625 5.609375 -12.796875 C 5.972656 -12.578125 6.15625 -12.253906 6.15625 -11.828125 C 6.15625 -11.148438 5.609375 -10.75 4.515625 -10.625 L 4.265625 -9.4375 Z M 4.09375 -9.4375 "/></g></g></g></svg>