<svg xmlns="http://www.w3.org/2000/svg" xmlns:xlink="http://www.w3.org/1999/xlink" width="500" zoomAndPan="magnify" viewBox="0 0 375 374.999991" height="500" preserveAspectRatio="xMidYMid meet" version="1.0"><defs><g/><clipPath id="5847552e3f"><rect x="0" width="203" y="0" height="45"/></clipPath><clipPath id="fe55f618f6"><path d="M 71 195 L 151.878906 195 L 151.878906 244.414062 L 71 244.414062 Z M 71 195 " clip-rule="nonzero"/></clipPath><clipPath id="08ea0bde43"><path d="M 71.484375 195.230469 L 151.878906 195.230469 L 151.878906 244.414062 L 71.484375 244.414062 Z M 71.484375 195.230469 " clip-rule="nonzero"/></clipPath><clipPath id="1d45f2bae6"><path d="M 110.5 199.632812 C 100.214844 192.632812 86.34375 194.316406 78.023438 203.566406 C 69.707031 212.816406 69.507812 226.789062 77.554688 236.273438 C 85.492188 241.523438 95.003906 244.582031 105.230469 244.582031 C 125.691406 244.582031 143.292969 232.347656 151.117188 214.792969 L 151.417969 214.101562 C 151.992188 212.488281 151.761719 210.679688 150.769531 209.246094 C 149.628906 207.605469 147.671875 206.734375 145.691406 206.984375 C 143.710938 207.230469 142.03125 208.5625 141.335938 210.433594 C 133.328125 222.492188 116.554688 222.6875 104.0625 219.007812 C 87.832031 214.226562 92.363281 194.820312 110.5 199.632812 " clip-rule="nonzero"/></clipPath><clipPath id="7d03f474b0"><path d="M 16.128906 130.414062 L 148 130.414062 L 148 237 L 16.128906 237 Z M 16.128906 130.414062 " clip-rule="nonzero"/></clipPath><clipPath id="c331477207"><path d="M 16.171875 130.414062 L 148 130.414062 L 148 236.414062 L 16.171875 236.414062 Z M 16.171875 130.414062 " clip-rule="nonzero"/></clipPath><clipPath id="007e81218c"><path d="M 40.550781 151.308594 C 45.253906 151.308594 49.066406 155.121094 49.066406 159.824219 C 49.066406 164.527344 45.253906 168.339844 40.550781 168.339844 C 35.851562 168.339844 32.035156 164.527344 32.035156 159.824219 C 32.035156 155.121094 35.851562 151.308594 40.550781 151.308594 M 30.875 193.488281 C 35.574219 193.488281 39.390625 197.300781 39.390625 202.003906 C 39.390625 206.707031 35.574219 210.515625 30.875 210.515625 C 26.171875 210.515625 22.359375 206.703125 22.359375 202.003906 C 22.363281 197.300781 26.175781 193.488281 30.875 193.488281 Z M 21.589844 169.496094 C 24.582031 169.496094 27.003906 171.921875 27.003906 174.914062 C 27.003906 177.90625 24.582031 180.332031 21.589844 180.332031 C 18.59375 180.332031 16.171875 177.90625 16.171875 174.914062 C 16.171875 171.921875 18.597656 169.496094 21.589844 169.496094 Z M 55.835938 130.414062 C 58.828125 130.414062 61.253906 132.839844 61.253906 135.832031 C 61.253906 138.824219 58.828125 141.25 55.835938 141.25 C 52.84375 141.25 50.417969 138.820312 50.417969 135.832031 C 50.417969 132.839844 52.84375 130.414062 55.835938 130.414062 Z M 82.042969 199.96875 C 90.363281 194.007812 101.738281 193.667969 110.5 199.632812 C 127.988281 204.273438 148.203125 193.507812 147.785156 174.363281 C 147.570312 164.425781 141.628906 158.507812 133.828125 153.09375 C 116.761719 141.25 94.058594 141.167969 76.910156 152.902344 C 77.355469 147.480469 73.082031 142.847656 67.65625 142.847656 C 62.527344 142.847656 58.367188 147.007812 58.367188 152.136719 C 58.367188 156.644531 61.578125 160.402344 65.835938 161.246094 L 65.84375 161.246094 C 66.359375 161.246094 66.863281 161.304688 67.34375 161.417969 C 70.25 162.097656 72.414062 164.707031 72.414062 167.816406 C 72.414062 173.058594 66.507812 176.28125 62.035156 173.175781 C 60.019531 171.773438 57.433594 170.992188 54.914062 170.992188 C 47.894531 170.992188 42.207031 176.683594 42.207031 183.699219 C 42.207031 190.71875 47.894531 196.40625 54.914062 196.40625 L 55.058594 196.367188 C 55.902344 196.136719 56.789062 196.042969 57.683594 196.105469 C 61.71875 196.386719 64.898438 199.75 64.898438 203.851562 C 64.898438 208.832031 60.320312 212.421875 55.582031 211.457031 C 55.28125 211.398438 54.988281 211.320312 54.699219 211.226562 C 54.195312 211.125 53.679688 211.070312 53.148438 211.070312 C 48.859375 211.070312 45.382812 214.546875 45.382812 218.832031 C 45.382812 223.121094 48.859375 226.597656 53.148438 226.597656 C 61.382812 226.597656 59.242188 216.441406 64.457031 223.679688 C 68.023438 228.632812 72.464844 232.902344 77.558594 236.273438 C 73.929688 231.996094 71.976562 226.804688 71.6875 221.546875 C 71.273438 218.449219 71.796875 214.699219 73.234375 211.457031 C 72.027344 214.667969 71.511719 218.085938 71.683594 221.476562 C 64.769531 143.742188 151.542969 162.644531 122.726562 186.398438 C 120.476562 188.253906 116.855469 188.679688 112.683594 188.601562 C 99.464844 186.339844 90.285156 191.292969 82.042969 199.96875 Z M 82.042969 199.96875 " clip-rule="nonzero"/></clipPath></defs><g transform="matrix(1, 0, 0, 1, 160, 174)"><g clip-path="url(#5847552e3f)"><g fill="#ffffff" fill-opacity="1"><g transform="translate(0.845912, 36.371797)"><g><path d="M 16.75 -19.546875 L 11.3125 -19.546875 L 11.3125 -21.625 C 11.3125 -21.84375 11.234375 -22.035156 11.078125 -22.203125 C 10.929688 -22.367188 10.75 -22.453125 10.53125 -22.453125 L 8.28125 -22.453125 C 8.0625 -22.453125 7.875 -22.367188 7.71875 -22.203125 C 7.570312 -22.035156 7.5 -21.84375 7.5 -21.625 L 7.5 -16.921875 C 7.5 -16.703125 7.570312 -16.507812 7.71875 -16.34375 C 7.875 -16.175781 8.0625 -16.09375 8.28125 -16.09375 L 11.96875 -16.09375 C 15.351562 -16.039062 17.046875 -14.238281 17.046875 -10.6875 L 17.046875 -5 C 17.046875 -1.394531 15.351562 0.40625 11.96875 0.40625 L 7.125 0.40625 C 3.738281 0.40625 2.046875 -1.394531 2.046875 -5 L 2.046875 -7.75 L 7.5 -7.75 L 7.5 -4.796875 C 7.5 -4.578125 7.570312 -4.382812 7.71875 -4.21875 C 7.875 -4.050781 8.0625 -3.96875 8.28125 -3.96875 L 10.8125 -3.96875 C 11.03125 -3.96875 11.210938 -4.050781 11.359375 -4.21875 C 11.515625 -4.382812 11.59375 -4.578125 11.59375 -4.796875 L 11.59375 -10 C 11.59375 -10.21875 11.515625 -10.40625 11.359375 -10.5625 C 11.210938 -10.726562 11.03125 -10.8125 10.8125 -10.8125 L 7.125 -10.8125 C 3.738281 -10.8125 2.046875 -12.613281 2.046875 -16.21875 L 2.046875 -21.515625 C 2.046875 -25.117188 3.738281 -26.921875 7.125 -26.921875 L 11.671875 -26.921875 C 15.054688 -26.921875 16.75 -25.117188 16.75 -21.515625 Z M 16.75 -19.546875 "/></g></g></g><g fill="#ffffff" fill-opacity="1"><g transform="translate(29.767512, 36.371797)"><g><path d="M 7.78125 -10.40625 L 7.78125 0 L 2.046875 0 L 2.046875 -26.5 L 7.78125 -26.5 L 7.78125 -15.40625 L 12.328125 -15.40625 L 12.328125 -26.5 L 18.0625 -26.5 L 18.0625 0 L 12.328125 0 L 12.328125 -10.40625 Z M 7.78125 -10.40625 "/></g></g></g><g fill="#ffffff" fill-opacity="1"><g transform="translate(60.040877, 36.371797)"><g><path d="M 17.65625 -21.515625 L 17.65625 -5 C 17.65625 -1.394531 15.960938 0.40625 12.578125 0.40625 L 7.125 0.40625 C 3.738281 0.40625 2.046875 -1.394531 2.046875 -5 L 2.046875 -21.515625 C 2.046875 -25.117188 3.738281 -26.921875 7.125 -26.921875 L 12.578125 -26.921875 C 15.960938 -26.921875 17.65625 -25.117188 17.65625 -21.515625 Z M 11.921875 -4.34375 L 11.921875 -22.203125 C 11.921875 -22.421875 11.84375 -22.613281 11.6875 -22.78125 C 11.539062 -22.945312 11.359375 -23.03125 11.140625 -23.03125 L 8.5625 -23.03125 C 8.34375 -23.03125 8.15625 -22.945312 8 -22.78125 C 7.851562 -22.613281 7.78125 -22.421875 7.78125 -22.203125 L 7.78125 -4.34375 C 7.78125 -4.125 7.851562 -3.929688 8 -3.765625 C 8.15625 -3.597656 8.34375 -3.515625 8.5625 -3.515625 L 11.140625 -3.515625 C 11.359375 -3.515625 11.539062 -3.597656 11.6875 -3.765625 C 11.84375 -3.929688 11.921875 -4.125 11.921875 -4.34375 Z M 11.921875 -4.34375 "/></g></g></g><g fill="#ffffff" fill-opacity="1"><g transform="translate(90.027501, 36.371797)"><g><path d="M 12.375 -26.5 C 15.757812 -26.5 17.453125 -24.695312 17.453125 -21.09375 L 17.453125 -15.8125 C 17.453125 -12.207031 15.757812 -10.40625 12.375 -10.40625 L 7.75 -10.40625 L 7.75 0 L 2 0 L 2 -26.5 Z M 11.71875 -15.15625 L 11.71875 -21.75 C 11.71875 -21.96875 11.640625 -22.160156 11.484375 -22.328125 C 11.335938 -22.492188 11.15625 -22.578125 10.9375 -22.578125 L 7.75 -22.578125 L 7.75 -14.34375 L 10.9375 -14.34375 C 11.15625 -14.34375 11.335938 -14.421875 11.484375 -14.578125 C 11.640625 -14.742188 11.71875 -14.9375 11.71875 -15.15625 Z M 11.71875 -15.15625 "/></g></g></g><g fill="#ffffff" fill-opacity="1"><g transform="translate(118.457548, 36.371797)"><g><path d="M 12.375 -26.5 C 15.757812 -26.5 17.453125 -24.695312 17.453125 -21.09375 L 17.453125 -15.8125 C 17.453125 -12.207031 15.757812 -10.40625 12.375 -10.40625 L 7.75 -10.40625 L 7.75 0 L 2 0 L 2 -26.5 Z M 11.71875 -15.15625 L 11.71875 -21.75 C 11.71875 -21.96875 11.640625 -22.160156 11.484375 -22.328125 C 11.335938 -22.492188 11.15625 -22.578125 10.9375 -22.578125 L 7.75 -22.578125 L 7.75 -14.34375 L 10.9375 -14.34375 C 11.15625 -14.34375 11.335938 -14.421875 11.484375 -14.578125 C 11.640625 -14.742188 11.71875 -14.9375 11.71875 -15.15625 Z M 11.71875 -15.15625 "/></g></g></g><g fill="#ffffff" fill-opacity="1"><g transform="translate(146.887595, 36.371797)"><g><path d="M 7.78125 -4.75 L 14.140625 -4.75 L 14.140625 0 L 2.046875 0 L 2.046875 -26.5 L 14.140625 -26.5 L 14.140625 -21.84375 L 7.78125 -21.84375 L 7.78125 -15.609375 L 13.71875 -15.609375 L 13.71875 -11.109375 L 7.78125 -11.109375 Z M 7.78125 -4.75 "/></g></g></g><g fill="#ffffff" fill-opacity="1"><g transform="translate(172.450278, 36.371797)"><g><path d="M 7.78125 -10.859375 L 7.78125 0 L 2.046875 0 L 2.046875 -26.5 L 12.25 -26.5 C 15.632812 -26.5 17.328125 -24.695312 17.328125 -21.09375 L 17.328125 -18.03125 C 17.328125 -15.84375 16.550781 -14.445312 15 -13.84375 C 16.363281 -13.351562 17.046875 -12.234375 17.046875 -10.484375 L 17.046875 0 L 11.3125 0 L 11.3125 -10.03125 C 11.3125 -10.582031 11.050781 -10.859375 10.53125 -10.859375 Z M 7.78125 -22.609375 L 7.78125 -14.875 L 10.8125 -14.875 C 11.03125 -14.875 11.210938 -14.953125 11.359375 -15.109375 C 11.515625 -15.273438 11.59375 -15.46875 11.59375 -15.6875 L 11.59375 -21.796875 C 11.59375 -22.015625 11.515625 -22.203125 11.359375 -22.359375 C 11.210938 -22.523438 11.03125 -22.609375 10.8125 -22.609375 Z M 7.78125 -22.609375 "/></g></g></g></g></g><g clip-path="url(#fe55f618f6)"><path fill="#ffffff" d="M 110.5 199.632812 C 100.214844 192.632812 86.34375 194.316406 78.023438 203.566406 C 69.707031 212.816406 69.507812 226.789062 77.554688 236.273438 C 85.492188 241.523438 95.003906 244.582031 105.230469 244.582031 C 125.691406 244.582031 143.292969 232.347656 151.117188 214.792969 L 151.417969 214.101562 C 151.992188 212.488281 151.761719 210.679688 150.769531 209.246094 C 149.628906 207.605469 147.671875 206.734375 145.691406 206.984375 C 143.710938 207.230469 142.03125 208.5625 141.335938 210.433594 C 133.328125 222.492188 116.554688 222.6875 104.0625 219.007812 C 87.832031 214.226562 92.363281 194.820312 110.5 199.632812 " fill-opacity="1" fill-rule="evenodd"/></g><g clip-path="url(#08ea0bde43)"><g clip-path="url(#1d45f2bae6)"><path fill="#ffffff" d="M 69.511719 192.632812 L 151.996094 192.632812 L 151.996094 244.582031 L 69.511719 244.582031 Z M 69.511719 192.632812 " fill-opacity="1" fill-rule="nonzero"/></g></g><g clip-path="url(#7d03f474b0)"><path fill="#ffffff" d="M 40.550781 151.308594 C 45.253906 151.308594 49.066406 155.121094 49.066406 159.824219 C 49.066406 164.527344 45.253906 168.339844 40.550781 168.339844 C 35.851562 168.339844 32.035156 164.527344 32.035156 159.824219 C 32.035156 155.121094 35.851562 151.308594 40.550781 151.308594 M 30.875 193.488281 C 35.574219 193.488281 39.390625 197.300781 39.390625 202.003906 C 39.390625 206.707031 35.574219 210.515625 30.875 210.515625 C 26.171875 210.515625 22.359375 206.703125 22.359375 202.003906 C 22.363281 197.300781 26.175781 193.488281 30.875 193.488281 Z M 21.589844 169.496094 C 24.582031 169.496094 27.003906 171.921875 27.003906 174.914062 C 27.003906 177.90625 24.582031 180.332031 21.589844 180.332031 C 18.59375 180.332031 16.171875 177.90625 16.171875 174.914062 C 16.171875 171.921875 18.597656 169.496094 21.589844 169.496094 Z M 55.835938 130.414062 C 58.828125 130.414062 61.253906 132.839844 61.253906 135.832031 C 61.253906 138.824219 58.828125 141.25 55.835938 141.25 C 52.84375 141.25 50.417969 138.820312 50.417969 135.832031 C 50.417969 132.839844 52.84375 130.414062 55.835938 130.414062 Z M 82.042969 199.96875 C 90.363281 194.007812 101.738281 193.667969 110.5 199.632812 C 127.988281 204.273438 148.203125 193.507812 147.785156 174.363281 C 147.570312 164.425781 141.628906 158.507812 133.828125 153.09375 C 116.761719 141.25 94.058594 141.167969 76.910156 152.902344 C 77.355469 147.480469 73.082031 142.847656 67.65625 142.847656 C 62.527344 142.847656 58.367188 147.007812 58.367188 152.136719 C 58.367188 156.644531 61.578125 160.402344 65.835938 161.246094 L 65.84375 161.246094 C 66.359375 161.246094 66.863281 161.304688 67.34375 161.417969 C 70.25 162.097656 72.414062 164.707031 72.414062 167.816406 C 72.414062 173.058594 66.507812 176.28125 62.035156 173.175781 C 60.019531 171.773438 57.433594 170.992188 54.914062 170.992188 C 47.894531 170.992188 42.207031 176.683594 42.207031 183.699219 C 42.207031 190.71875 47.894531 196.40625 54.914062 196.40625 L 55.058594 196.367188 C 55.902344 196.136719 56.789062 196.042969 57.683594 196.105469 C 61.71875 196.386719 64.898438 199.75 64.898438 203.851562 C 64.898438 208.832031 60.320312 212.421875 55.582031 211.457031 C 55.28125 211.398438 54.988281 211.320312 54.699219 211.226562 C 54.195312 211.125 53.679688 211.070312 53.148438 211.070312 C 48.859375 211.070312 45.382812 214.546875 45.382812 218.832031 C 45.382812 223.121094 48.859375 226.597656 53.148438 226.597656 C 61.382812 226.597656 59.242188 216.441406 64.457031 223.679688 C 68.023438 228.632812 72.464844 232.902344 77.558594 236.273438 C 73.929688 231.996094 71.976562 226.804688 71.6875 221.546875 C 71.273438 218.449219 71.796875 214.699219 73.234375 211.457031 C 72.027344 214.667969 71.511719 218.085938 71.683594 221.476562 C 64.769531 143.742188 151.546875 162.644531 122.726562 186.398438 C 120.476562 188.253906 116.855469 188.679688 112.683594 188.601562 C 99.464844 186.339844 90.285156 191.292969 82.042969 199.96875 Z M 82.042969 199.96875 " fill-opacity="1" fill-rule="evenodd"/></g><g clip-path="url(#c331477207)"><g clip-path="url(#007e81218c)"><path fill="#ffffff" d="M 16.171875 130.414062 L 151.546875 130.414062 L 151.546875 236.273438 L 16.171875 236.273438 Z M 16.171875 130.414062 " fill-opacity="1" fill-rule="nonzero"/></g></g></svg>